<svg width="220" height="75" fill="none" xmlns="http://www.w3.org/2000/svg"><rect width="220" height="75" rx="15" fill="url(#paint0_linear)"/><path d="M22.43 41.25H24A18.55 18.55 0 0041 52.5c7.61 0 14.14-4.63 17-11.25h1.57c1.02 0 1.86-.84 1.86-1.88V28.13c0-1.04-.84-1.88-1.86-1.88H58A18.55 18.55 0 0041 15a18.55 18.55 0 00-17 11.25h-1.57c-1.02 0-1.86.84-1.86 1.88v11.25c0 1.03.84 1.87 1.86 1.87zm4.64-10.31c0-2.6 2.5-4.69 5.57-4.69h16.72c3.07 0 5.57 2.1 5.57 4.69v2.81c0 6.21-5 11.25-11.14 11.25H38.2a11.2 11.2 0 01-11.14-11.25v-2.81zm8.36 8.43l1.4-4.21L41 33.75l-4.18-1.4-1.4-4.23-1.38 4.22-4.18 1.41 4.18 1.4 1.39 4.23zm17.6 13.3a21.94 21.94 0 01-24.05 0A15.65 15.65 0 0015 68.24V75h14.86v-7.5a3.73 3.73 0 013.71-3.75h14.86a3.73 3.73 0 013.71 3.75V75H67v-6.75c0-8.13-6.14-14.75-13.98-15.59zM46.56 67.5a1.87 1.87 0 000 3.75 1.87 1.87 0 000-3.75zm-11.14 0c-1.02 0-1.86.84-1.86 1.88V75h3.72v-5.63c0-1.03-.84-1.87-1.86-1.87zM87.05 29c3.54 0 5.6-2.2 5.6-5.84 0-3.61-2.06-5.8-5.49-5.8h-3.88V29h3.77zm-2.02-1.53V18.9h2.03c2.54 0 3.85 1.52 3.85 4.26 0 2.76-1.3 4.3-3.96 4.3h-1.92zm13.34 1.7c2.45 0 4.06-1.8 4.06-4.5 0-2.71-1.6-4.51-4.06-4.51-2.47 0-4.07 1.8-4.07 4.52 0 2.7 1.6 4.5 4.07 4.5zm0-1.42c-1.6 0-2.36-1.4-2.36-3.08 0-1.67.75-3.1 2.36-3.1 1.6 0 2.35 1.43 2.35 3.1 0 1.68-.75 3.08-2.35 3.08zm7.59 1.25h1.72l1.78-6.3h.13l1.77 6.3h1.73l2.56-8.73h-1.75l-1.7 6.38h-.09l-1.7-6.38h-1.75l-1.72 6.41h-.09l-1.7-6.4h-1.76l2.57 8.72zm13-5.18c0-1.4.86-2.19 2.04-2.19 1.15 0 1.85.76 1.85 2.02V29h1.7v-5.55c0-2.16-1.19-3.3-2.97-3.3-1.31 0-2.17.62-2.57 1.54h-.11v-1.42h-1.63V29h1.7v-5.18zm9.57-6.46h-1.7V29h1.7V17.36zm5.96 11.82c2.46 0 4.07-1.8 4.07-4.5 0-2.72-1.61-4.52-4.07-4.52s-4.07 1.8-4.07 4.52c0 2.7 1.61 4.5 4.07 4.5zm0-1.43c-1.6 0-2.35-1.4-2.35-3.08 0-1.67.75-3.1 2.36-3.1 1.6 0 2.34 1.43 2.34 3.1 0 1.68-.75 3.08-2.34 3.08zm8.5 1.44c1.45 0 2.26-.73 2.58-1.38h.07V29h1.66v-5.8c0-2.54-2-3.04-3.39-3.04-1.57 0-3.03.64-3.6 2.23l1.6.36c.25-.62.88-1.22 2.03-1.22 1.1 0 1.66.58 1.66 1.57v.04c0 .62-.64.6-2.2.79-1.66.19-3.36.62-3.36 2.6 0 1.72 1.3 2.66 2.95 2.66zm.37-1.36c-.96 0-1.65-.43-1.65-1.27 0-.91.8-1.24 1.79-1.37.55-.07 1.86-.22 2.1-.46v1.12c0 1.04-.82 1.98-2.24 1.98zm9.47 1.34c1.6 0 2.22-.97 2.52-1.53h.15V29h1.66V17.36h-1.7v4.33h-.1c-.31-.54-.9-1.53-2.52-1.53-2.1 0-3.66 1.66-3.66 4.5 0 2.82 1.53 4.51 3.65 4.51zm.38-1.45c-1.52 0-2.31-1.33-2.31-3.08 0-1.74.77-3.04 2.3-3.04 1.49 0 2.28 1.21 2.28 3.04s-.8 3.08-2.27 3.08zM165.7 29h1.72l1.78-6.3h.13l1.77 6.3h1.73l2.56-8.73h-1.75l-1.7 6.38h-.08l-1.7-6.38h-1.76l-1.72 6.41h-.09l-1.7-6.4h-1.76L165.7 29zm11.3 0h1.7v-8.73h-1.7V29zm.87-10.07c.58 0 1.07-.46 1.07-1.02 0-.55-.49-1.01-1.07-1.01-.6 0-1.08.46-1.08 1.01 0 .56.48 1.02 1.07 1.02zm7.2 1.34h-1.8v-2.09h-1.7v2.1h-1.27v1.36h1.28v5.15c0 1.59 1.2 2.35 2.54 2.32.54 0 .9-.1 1.1-.18l-.3-1.4c-.12.02-.33.07-.6.07-.55 0-1.04-.18-1.04-1.16v-4.8h1.78v-1.37zm3.76 3.55c0-1.4.88-2.19 2.1-2.19 1.16 0 1.86.75 1.86 2.02V29h1.7v-5.55c0-2.18-1.2-3.3-2.99-3.3-1.36 0-2.17.6-2.58 1.54h-.11v-4.33h-1.68V29h1.7v-5.18zM92.65 52.6c0-.75-.26-1.33-.8-1.74a9.42 9.42 0 00-2.84-1.23 13.78 13.78 0 01-3.28-1.38c-1.56-.98-2.34-2.25-2.34-3.82 0-1.38.56-2.51 1.68-3.4a6.83 6.83 0 014.37-1.34c1.19 0 2.25.22 3.18.66a5.2 5.2 0 012.19 1.87c.53.8.8 1.7.8 2.69h-2.96c0-.9-.28-1.59-.84-2.09-.56-.5-1.35-.76-2.4-.76-.96 0-1.71.2-2.25.62-.53.42-.8 1-.8 1.74 0 .62.29 1.14.87 1.57.57.41 1.53.82 2.86 1.21 1.32.4 2.4.84 3.2 1.35.8.5 1.39 1.08 1.76 1.74.38.65.57 1.4.57 2.28 0 1.42-.55 2.56-1.64 3.4-1.09.84-2.57 1.25-4.43 1.25a8.44 8.44 0 01-3.41-.68 5.8 5.8 0 01-2.42-1.9 4.74 4.74 0 01-.85-2.8h2.96c0 .96.32 1.71.96 2.24.64.53 1.56.8 2.76.8 1.03 0 1.8-.2 2.32-.62.52-.42.78-.98.78-1.66zm10.5 2.35c.71 0 1.3-.2 1.77-.62.47-.41.72-.93.75-1.54h2.69a4.21 4.21 0 01-.74 2.22 4.86 4.86 0 01-1.88 1.62c-.79.4-1.64.6-2.55.6a5.4 5.4 0 01-4.22-1.73c-1.04-1.15-1.56-2.73-1.56-4.76v-.29a6.7 6.7 0 011.55-4.63 5.35 5.35 0 014.22-1.74c1.5 0 2.73.44 3.67 1.32a4.69 4.69 0 011.5 3.46h-2.68a2.6 2.6 0 00-.75-1.8 2.38 2.38 0 00-1.77-.7 2.5 2.5 0 00-2.13 1c-.5.67-.75 1.68-.76 3.04v.46c0 1.38.24 2.4.74 3.08.5.67 1.22 1.01 2.15 1.01zm14-8.04c-.38-.06-.77-.1-1.17-.1-1.3 0-2.18.5-2.63 1.5V57h-2.85V44.32h2.72l.07 1.42a3.2 3.2 0 012.86-1.65c.4 0 .74.05 1 .16v2.67zM121.97 57h-2.84V44.32h2.84V57zm-3.02-15.97c0-.44.14-.8.4-1.1.3-.28.69-.43 1.2-.43.52 0 .92.15 1.2.44.28.29.42.65.42 1.09 0 .43-.14.79-.42 1.08-.28.28-.68.42-1.2.42-.51 0-.9-.14-1.2-.42a1.51 1.51 0 01-.4-1.08zm17.24 9.76c0 1.96-.45 3.53-1.34 4.7a4.28 4.28 0 01-3.58 1.74 4.3 4.3 0 01-3.34-1.37v6.02h-2.85V44.31h2.62l.12 1.29a4.18 4.18 0 013.41-1.52 4.3 4.3 0 013.63 1.73c.89 1.15 1.33 2.75 1.33 4.8v.17zm-2.84-.25c0-1.26-.25-2.27-.76-3a2.44 2.44 0 00-2.16-1.12c-1.16 0-2 .48-2.5 1.44v5.62a2.64 2.64 0 002.53 1.48c.9 0 1.61-.36 2.12-1.09.51-.73.77-1.84.77-3.33zm8.83-9.3v3.08h2.23v2.11h-2.23v7.08c0 .48.09.83.28 1.05.2.21.54.32 1.03.32.33 0 .66-.04 1-.12v2.2a7 7 0 01-1.88.27c-2.19 0-3.28-1.2-3.28-3.62v-7.18h-2.09v-2.11h2.09v-3.08h2.85zm4.7 15.76V39.94h5.03c1.51 0 2.85.33 4.01 1a6.86 6.86 0 012.72 2.86c.64 1.24.96 2.65.96 4.25v.85a9 9 0 01-.97 4.27 6.75 6.75 0 01-2.75 2.83c-1.2.67-2.56 1-4.1 1h-4.9zm2.96-14.67v12.3h1.93c1.56 0 2.75-.48 3.58-1.45.83-.98 1.26-2.38 1.28-4.2v-.94c0-1.86-.4-3.27-1.21-4.25-.8-.97-1.97-1.46-3.5-1.46h-2.08zm20.12 13.43a4.42 4.42 0 01-3.56 1.47c-1.38 0-2.42-.4-3.13-1.2-.7-.8-1.06-1.97-1.06-3.5v-8.21h2.85v8.18c0 1.6.67 2.41 2 2.41 1.39 0 2.32-.5 2.8-1.48v-9.11h2.85V57h-2.68l-.07-1.24zm5.12-5.2c0-1.95.45-3.51 1.36-4.7a4.35 4.35 0 013.65-1.77c1.34 0 2.43.46 3.25 1.4V39h2.85v18h-2.58l-.14-1.31a4.2 4.2 0 01-3.4 1.54c-1.5 0-2.7-.6-3.62-1.79-.91-1.2-1.37-2.82-1.37-4.87zm2.85.25c0 1.3.25 2.3.74 3.03.5.71 1.2 1.07 2.12 1.07 1.16 0 2.02-.52 2.55-1.55v-5.42a2.65 2.65 0 00-2.53-1.52c-.92 0-1.63.37-2.13 1.1-.5.73-.75 1.82-.75 3.3zm16.82 6.42c-1.8 0-3.27-.56-4.4-1.7a6.21 6.21 0 01-1.67-4.54v-.35c0-1.27.24-2.4.72-3.39a5.44 5.44 0 015.02-3.16c1.72 0 3.06.55 4 1.65.94 1.1 1.41 2.66 1.41 4.67v1.15h-8.28a3.82 3.82 0 001.04 2.49c.62.6 1.39.91 2.32.91 1.3 0 2.37-.53 3.19-1.58l1.53 1.46a5.17 5.17 0 01-2.04 1.77c-.84.42-1.79.62-2.84.62zm-.34-10.86c-.78 0-1.42.27-1.9.82-.48.55-.78 1.31-.92 2.29h5.43v-.21a3.44 3.44 0 00-.76-2.16 2.37 2.37 0 00-1.85-.74z" fill="#fff"/><defs><linearGradient id="paint0_linear" x1="220" y1="37" x2="0" y2="37" gradientUnits="userSpaceOnUse"><stop stop-color="#5A8AD2"/><stop offset="1" stop-color="#6D9FD9"/></linearGradient></defs></svg>